<svg xmlns="http://www.w3.org/2000/svg" viewBox="0 0 500 500"><g id="freepik--background-simple--inject-24"><path d="M421.8,275.49c4.11-27,1.17-54.8-6-81-6.44-23.51-14.56-47.65-33.46-64.16-22.9-20-51.49-22.61-80.51-19.22C244.4,117.8,228,93.2,185.51,94.69s-79.76,19.38-91.69,55.91,6.71,74.55-2.24,96.16S57.29,290,72.2,321.31,119.91,377.22,196,383.18s142.38,8.95,185.62-30.56C405,331.21,417.42,304.23,421.8,275.49Z" style="fill:#059669"></path><path d="M421.8,275.49c4.11-27,1.17-54.8-6-81-6.44-23.51-14.56-47.65-33.46-64.16-22.9-20-51.49-22.61-80.51-19.22C244.4,117.8,228,93.2,185.51,94.69s-79.76,19.38-91.69,55.91,6.71,74.55-2.24,96.16S57.29,290,72.2,321.31,119.91,377.22,196,383.18s142.38,8.95,185.62-30.56C405,331.21,417.42,304.23,421.8,275.49Z" style="fill:#fff;opacity:0.7000000000000001"></path></g><g id="freepik--Plants--inject-24"><path d="M159.42,133.08A1.12,1.12,0,0,1,158.3,132V118.54a1.12,1.12,0,0,1,2.24,0V132A1.12,1.12,0,0,1,159.42,133.08Z" style="fill:#059669"></path><path d="M166.13,126.37H152.71a1.12,1.12,0,1,1,0-2.23h13.42a1.12,1.12,0,1,1,0,2.23Z" style="fill:#059669"></path><path d="M399.46,293.36a1.12,1.12,0,0,1-1.12-1.12V281.8a1.12,1.12,0,0,1,2.24,0v10.44A1.12,1.12,0,0,1,399.46,293.36Z" style="fill:#059669"></path><path d="M404.68,288.14H394.24a1.12,1.12,0,0,1,0-2.24h10.44a1.12,1.12,0,1,1,0,2.24Z" style="fill:#059669"></path><path d="M92,304.54a1.12,1.12,0,0,1-1.12-1.12v-6.71a1.12,1.12,0,0,1,2.24,0v6.71A1.12,1.12,0,0,1,92,304.54Z" style="fill:#059669"></path><path d="M95.31,301.18H88.6a1.12,1.12,0,1,1,0-2.23h6.71a1.12,1.12,0,1,1,0,2.23Z" style="fill:#059669"></path><path d="M118.79,144.64a1.12,1.12,0,0,1-1.11-1.12v-6.71a1.12,1.12,0,1,1,2.23,0v6.71A1.12,1.12,0,0,1,118.79,144.64Z" style="fill:#059669"></path><path d="M122.15,141.28h-6.71a1.12,1.12,0,0,1,0-2.24h6.71a1.12,1.12,0,0,1,0,2.24Z" style="fill:#059669"></path><path d="M290.62,328.39a1.12,1.12,0,0,1-1.11-1.12v-6.71a1.12,1.12,0,0,1,2.23,0v6.71A1.12,1.12,0,0,1,290.62,328.39Z" style="fill:#059669"></path><path d="M294,325h-6.71a1.12,1.12,0,0,1,0-2.24H294a1.12,1.12,0,0,1,0,2.24Z" style="fill:#059669"></path><path d="M392.75,181.54a4.1,4.1,0,1,1,4.1-4.1A4.11,4.11,0,0,1,392.75,181.54Zm0-6a1.87,1.87,0,1,0,1.87,1.87A1.87,1.87,0,0,0,392.75,175.57Z" style="fill:#059669"></path><path d="M305.53,129.35a5.59,5.59,0,1,1,5.59-5.59A5.59,5.59,0,0,1,305.53,129.35Zm0-8.94a3.36,3.36,0,1,0,3.36,3.35A3.35,3.35,0,0,0,305.53,120.41Z" style="fill:#059669"></path><path d="M208.62,312.74a5.59,5.59,0,1,1,5.59-5.59A5.6,5.6,0,0,1,208.62,312.74Zm0-8.95a3.36,3.36,0,1,0,3.36,3.36A3.36,3.36,0,0,0,208.62,303.79Z" style="fill:#059669"></path><g style="opacity:0.5"><path d="M159.42,133.08A1.12,1.12,0,0,1,158.3,132V118.54a1.12,1.12,0,0,1,2.24,0V132A1.12,1.12,0,0,1,159.42,133.08Z" style="fill:#fff"></path><path d="M166.13,126.37H152.71a1.12,1.12,0,1,1,0-2.23h13.42a1.12,1.12,0,1,1,0,2.23Z" style="fill:#fff"></path><path d="M399.46,293.36a1.12,1.12,0,0,1-1.12-1.12V281.8a1.12,1.12,0,0,1,2.24,0v10.44A1.12,1.12,0,0,1,399.46,293.36Z" style="fill:#fff"></path><path d="M404.68,288.14H394.24a1.12,1.12,0,0,1,0-2.24h10.44a1.12,1.12,0,1,1,0,2.24Z" style="fill:#fff"></path><path d="M92,304.54a1.12,1.12,0,0,1-1.12-1.12v-6.71a1.12,1.12,0,0,1,2.24,0v6.71A1.12,1.12,0,0,1,92,304.54Z" style="fill:#fff"></path><path d="M95.31,301.18H88.6a1.12,1.12,0,1,1,0-2.23h6.71a1.12,1.12,0,1,1,0,2.23Z" style="fill:#fff"></path><path d="M118.79,144.64a1.12,1.12,0,0,1-1.11-1.12v-6.71a1.12,1.12,0,1,1,2.23,0v6.71A1.12,1.12,0,0,1,118.79,144.64Z" style="fill:#fff"></path><path d="M122.15,141.28h-6.71a1.12,1.12,0,0,1,0-2.24h6.71a1.12,1.12,0,0,1,0,2.24Z" style="fill:#fff"></path><path d="M290.62,328.39a1.12,1.12,0,0,1-1.11-1.12v-6.71a1.12,1.12,0,0,1,2.23,0v6.71A1.12,1.12,0,0,1,290.62,328.39Z" style="fill:#fff"></path><path d="M294,325h-6.71a1.12,1.12,0,0,1,0-2.24H294a1.12,1.12,0,0,1,0,2.24Z" style="fill:#fff"></path><path d="M392.75,181.54a4.1,4.1,0,1,1,4.1-4.1A4.11,4.11,0,0,1,392.75,181.54Zm0-6a1.87,1.87,0,1,0,1.87,1.87A1.87,1.87,0,0,0,392.75,175.57Z" style="fill:#fff"></path><path d="M305.53,129.35a5.59,5.59,0,1,1,5.59-5.59A5.59,5.59,0,0,1,305.53,129.35Zm0-8.94a3.36,3.36,0,1,0,3.36,3.35A3.35,3.35,0,0,0,305.53,120.41Z" style="fill:#fff"></path><path d="M208.62,312.74a5.59,5.59,0,1,1,5.59-5.59A5.6,5.6,0,0,1,208.62,312.74Zm0-8.95a3.36,3.36,0,1,0,3.36,3.36A3.36,3.36,0,0,0,208.62,303.79Z" style="fill:#fff"></path></g><polygon points="213.26 115.55 211.69 110.72 210.12 115.55 205.03 115.55 209.14 118.54 207.57 123.38 211.69 120.39 215.8 123.38 214.23 118.54 218.35 115.55 213.26 115.55" style="fill:#059669"></polygon><polygon points="230.24 115.55 228.66 110.72 227.09 115.55 222 115.55 226.12 118.54 224.55 123.38 228.66 120.39 232.78 123.38 231.21 118.54 235.32 115.55 230.24 115.55" style="fill:#059669"></polygon><polygon points="247.21 115.55 245.64 110.72 244.07 115.55 238.98 115.55 243.09 118.54 241.52 123.38 245.64 120.39 249.75 123.38 248.18 118.54 252.3 115.55 247.21 115.55" style="fill:#059669"></polygon><polygon points="264.19 115.55 262.62 110.72 261.04 115.55 255.96 115.55 260.07 118.54 258.5 123.38 262.62 120.39 266.73 123.38 265.16 118.54 269.27 115.55 264.19 115.55" style="fill:#059669"></polygon><polygon points="286.25 115.55 281.16 115.55 279.59 110.72 278.02 115.55 272.93 115.55 277.05 118.54 275.48 123.38 279.59 120.39 283.71 123.38 282.13 118.54 286.25 115.55" style="fill:#059669"></polygon><g style="opacity:0.5"><polygon points="213.26 115.55 211.69 110.72 210.12 115.55 205.03 115.55 209.14 118.54 207.57 123.38 211.69 120.39 215.8 123.38 214.23 118.54 218.35 115.55 213.26 115.55" style="fill:#fff"></polygon><polygon points="230.24 115.55 228.66 110.72 227.09 115.55 222 115.55 226.12 118.54 224.55 123.38 228.66 120.39 232.78 123.38 231.21 118.54 235.32 115.55 230.24 115.55" style="fill:#fff"></polygon><polygon points="247.21 115.55 245.64 110.72 244.07 115.55 238.98 115.55 243.09 118.54 241.52 123.38 245.64 120.39 249.75 123.38 248.18 118.54 252.3 115.55 247.21 115.55" style="fill:#fff"></polygon><polygon points="264.19 115.55 262.62 110.72 261.04 115.55 255.96 115.55 260.07 118.54 258.5 123.38 262.62 120.39 266.73 123.38 265.16 118.54 269.27 115.55 264.19 115.55" style="fill:#fff"></polygon><polygon points="286.25 115.55 281.16 115.55 279.59 110.72 278.02 115.55 272.93 115.55 277.05 118.54 275.48 123.38 279.59 120.39 283.71 123.38 282.13 118.54 286.25 115.55" style="fill:#fff"></polygon></g><path d="M432,316.39c-4.27-2.93-10.66-3.42-10.66-3.42a44.41,44.41,0,0,1,18.33,1.47s-6-4.4-10.23-4.4-11.08-.49-11.08-.49c2.56-2.93,11.93-6.35,11.93-6.35a89.35,89.35,0,0,0-9.8.49c-3,.49-3.83,3.91-3.83,3.91s-.86-2-7.25-3.42-8.09,3.42-8.09,3.42h6c2.13,0,5.11,2.93,5.11,2.93s-6.81,0-9.37,1.47c-2.2,1.26-5,6.49-5.77,7.93a167.64,167.64,0,0,1,7.44-26.46l.17-.13a52.64,52.64,0,0,0,6-4.81l7.2,12-.6-10.21s6,1.81,7.81,3.61,7.21,7.8,7.21,7.8-2.4-9-5.41-12a68.57,68.57,0,0,0-8.41-6.6s6.61,0,9,1.2,9.61,6,9.61,6-4.8-8.4-8.41-10.21-13.21-1.8-13.21-1.8,4.21-3.6,7.21-3.6h8.41s-2.41-6-11.41-4.2-10.21,4.2-10.21,4.2-1.21-4.2-5.41-4.81-13.81-.6-13.81-.6,13.21,4.21,16.81,7.81c0,0-9.61.6-15.61.6s-14.41,5.41-14.41,5.41,12.61-3.61,25.82-1.8c0,0-9,.6-15,4.2s-12,12-12,12a30.82,30.82,0,0,1,12.62-7.21c7.2-1.8,17.41-4.2,17.41-4.2s-10.21,8.41-11.41,12.61a90.42,90.42,0,0,1-4.8,11.41s8.61-11,13.45-15.5A162.05,162.05,0,0,0,393.64,344c-1.78-7.29-7-22.37-20.56-29.92,2.57.7,6.28,1.72,9.27,2.58,5.12,1.47,8.95,5.86,8.95,5.86s-4.26-6.84-8.52-9.77-10.65-3.42-10.65-3.42a44.19,44.19,0,0,1,18.32,1.47s-6-4.4-10.23-4.4-11.08-.49-11.08-.49c2.56-2.93,11.94-6.35,11.94-6.35a91.45,91.45,0,0,0-9.81.48c-3,.49-3.83,3.91-3.83,3.91s-.85-1.95-7.24-3.42-8.1,3.42-8.1,3.42h6c2.14,0,5.12,2.94,5.12,2.94s-6.82,0-9.38,1.46-6,8.31-6,8.31,5.11-3.91,6.82-4.89,6.39-1,6.39-1a50.27,50.27,0,0,0-6,5.37c-2.13,2.44-3.83,9.78-3.83,9.78s3.83-4.89,5.11-6.36,5.54-2.93,5.54-2.93l-.43,8.31,5.12-9.78a38.57,38.57,0,0,0,4.26,3.91c3,2.45,10.65,13.69,10.65,13.69a79.82,79.82,0,0,1-3.41-9.29c-.7-2.82-5.73-8-7.48-9.67,17.37,8.15,22,28.67,22.8,33.41h-7.2l1.59,14h12.68l1.58-14h-7.45a62.69,62.69,0,0,1,6.22-19c-.21.81-.34,1.34-.34,1.34s3.84-4.89,5.12-6.35,5.54-2.94,5.54-2.94l-.43,8.31,5.11-9.77a39.87,39.87,0,0,0,4.26,3.91c3,2.44,10.66,13.68,10.66,13.68a79.4,79.4,0,0,1-3.41-9.28c-.85-3.43-8.1-10.27-8.1-10.27s7.25,2,12.36,3.42,8.95,5.87,8.95,5.87S436.29,319.33,432,316.39Zm-37.45,26.35a151.45,151.45,0,0,1,2.65-22.55c.8-.61,5.13-3.89,6.67-4.77,1.71-1,6.39-1,6.39-1a50.52,50.52,0,0,0-6,5.37,16.65,16.65,0,0,0-2.42,4.93A56.42,56.42,0,0,0,394.58,342.74Z" style="fill:#059669"></path><path d="M432,316.39c-4.27-2.93-10.66-3.42-10.66-3.42a44.41,44.41,0,0,1,18.33,1.47s-6-4.4-10.23-4.4-11.08-.49-11.08-.49c2.56-2.93,11.93-6.35,11.93-6.35a89.35,89.35,0,0,0-9.8.49c-3,.49-3.83,3.91-3.83,3.91s-.86-2-7.25-3.42-8.09,3.42-8.09,3.42h6c2.13,0,5.11,2.93,5.11,2.93s-6.81,0-9.37,1.47c-2.2,1.26-5,6.49-5.77,7.93a167.64,167.64,0,0,1,7.44-26.46l.17-.13a52.64,52.64,0,0,0,6-4.81l7.2,12-.6-10.21s6,1.81,7.81,3.61,7.21,7.8,7.21,7.8-2.4-9-5.41-12a68.57,68.57,0,0,0-8.41-6.6s6.61,0,9,1.2,9.61,6,9.61,6-4.8-8.4-8.41-10.21-13.21-1.8-13.21-1.8,4.21-3.6,7.21-3.6h8.41s-2.41-6-11.41-4.2-10.21,4.2-10.21,4.2-1.21-4.2-5.41-4.81-13.81-.6-13.81-.6,13.21,4.21,16.81,7.81c0,0-9.61.6-15.61.6s-14.41,5.41-14.41,5.41,12.61-3.61,25.82-1.8c0,0-9,.6-15,4.2s-12,12-12,12a30.82,30.82,0,0,1,12.62-7.21c7.2-1.8,17.41-4.2,17.41-4.2s-10.21,8.41-11.41,12.61a90.42,90.42,0,0,1-4.8,11.41s8.61-11,13.45-15.5A162.05,162.05,0,0,0,393.64,344c-1.78-7.29-7-22.37-20.56-29.92,2.57.7,6.28,1.72,9.27,2.58,5.12,1.47,8.95,5.86,8.95,5.86s-4.26-6.84-8.52-9.77-10.65-3.42-10.65-3.42a44.19,44.19,0,0,1,18.32,1.47s-6-4.4-10.23-4.4-11.08-.49-11.08-.49c2.56-2.93,11.94-6.35,11.94-6.35a91.45,91.45,0,0,0-9.81.48c-3,.49-3.83,3.91-3.83,3.91s-.85-1.95-7.24-3.42-8.1,3.42-8.1,3.42h6c2.14,0,5.12,2.94,5.12,2.94s-6.82,0-9.38,1.46-6,8.31-6,8.31,5.11-3.91,6.82-4.89,6.39-1,6.39-1a50.27,50.27,0,0,0-6,5.37c-2.13,2.44-3.83,9.78-3.83,9.78s3.83-4.89,5.11-6.36,5.54-2.93,5.54-2.93l-.43,8.31,5.12-9.78a38.57,38.57,0,0,0,4.26,3.91c3,2.45,10.65,13.69,10.65,13.69a79.82,79.82,0,0,1-3.41-9.29c-.7-2.82-5.73-8-7.48-9.67,17.37,8.15,22,28.67,22.8,33.41h-7.2l1.59,14h12.68l1.58-14h-7.45a62.69,62.69,0,0,1,6.22-19c-.21.81-.34,1.34-.34,1.34s3.84-4.89,5.12-6.35,5.54-2.94,5.54-2.94l-.43,8.31,5.11-9.77a39.87,39.87,0,0,0,4.26,3.91c3,2.44,10.66,13.68,10.66,13.68a79.4,79.4,0,0,1-3.41-9.28c-.85-3.43-8.1-10.27-8.1-10.27s7.25,2,12.36,3.42,8.95,5.87,8.95,5.87S436.29,319.33,432,316.39Zm-37.45,26.35a151.45,151.45,0,0,1,2.65-22.55c.8-.61,5.13-3.89,6.67-4.77,1.71-1,6.39-1,6.39-1a50.52,50.52,0,0,0-6,5.37,16.65,16.65,0,0,0-2.42,4.93A56.42,56.42,0,0,0,394.58,342.74Z" style="fill:#fff;opacity:0.4"></path><path d="M153.6,316.39c-4.27-2.93-10.66-3.42-10.66-3.42a44.41,44.41,0,0,1,18.33,1.47s-6-4.4-10.23-4.4-11.08-.49-11.08-.49c2.56-2.93,11.93-6.35,11.93-6.35a89.35,89.35,0,0,0-9.8.49c-3,.49-3.83,3.91-3.83,3.91s-.86-2-7.25-3.42-8.1,3.42-8.1,3.42h6c2.13,0,5.11,2.93,5.11,2.93s-6.81,0-9.37,1.47c-2.2,1.26-5,6.49-5.77,7.93a166.57,166.57,0,0,1,7.44-26.46l.17-.13a53.89,53.89,0,0,0,6-4.81l7.2,12-.6-10.21s6,1.81,7.81,3.61,7.21,7.8,7.21,7.8-2.41-9-5.41-12a68.57,68.57,0,0,0-8.41-6.6s6.61,0,9,1.2,9.61,6,9.61,6-4.8-8.4-8.41-10.21-13.21-1.8-13.21-1.8,4.2-3.6,7.21-3.6h8.41s-2.41-6-11.42-4.2-10.2,4.2-10.2,4.2-1.21-4.2-5.41-4.81-13.81-.6-13.81-.6,13.21,4.21,16.81,7.81c0,0-9.61.6-15.61.6s-14.42,5.41-14.42,5.41,12.62-3.61,25.83-1.8c0,0-9,.6-15,4.2s-12,12-12,12a30.82,30.82,0,0,1,12.62-7.21c7.2-1.8,17.41-4.2,17.41-4.2s-10.21,8.41-11.41,12.61a90.42,90.42,0,0,1-4.8,11.41s8.61-11,13.45-15.5A162.05,162.05,0,0,0,115.21,344c-1.78-7.29-7-22.37-20.56-29.92,2.57.7,6.28,1.72,9.27,2.58,5.12,1.47,9,5.86,9,5.86s-4.26-6.84-8.52-9.77-10.65-3.42-10.65-3.42A44.19,44.19,0,0,1,112,310.84s-6-4.4-10.23-4.4S90.71,306,90.71,306c2.56-2.93,11.93-6.35,11.93-6.35a91.29,91.29,0,0,0-9.8.48C89.86,300.57,89,304,89,304s-.85-1.95-7.25-3.42S73.67,304,73.67,304h6c2.13,0,5.12,2.94,5.12,2.94s-6.82,0-9.38,1.46-6,8.31-6,8.31,5.11-3.91,6.82-4.89,6.39-1,6.39-1a50.27,50.27,0,0,0-6,5.37c-2.13,2.44-3.83,9.78-3.83,9.78s3.83-4.89,5.11-6.36,5.54-2.93,5.54-2.93L83,325l5.12-9.78a37.36,37.36,0,0,0,4.26,3.91c3,2.45,10.65,13.69,10.65,13.69a79.82,79.82,0,0,1-3.41-9.29c-.7-2.82-5.73-8-7.49-9.67,17.38,8.15,22,28.67,22.81,33.41h-7.2l1.59,14h12.68l1.58-14h-7.45a62.69,62.69,0,0,1,6.22-19c-.21.81-.34,1.34-.34,1.34s3.84-4.89,5.12-6.35,5.54-2.94,5.54-2.94l-.43,8.31,5.11-9.77a39.87,39.87,0,0,0,4.26,3.91c3,2.44,10.66,13.68,10.66,13.68a79.4,79.4,0,0,1-3.41-9.28c-.85-3.43-8.1-10.27-8.1-10.27s7.25,2,12.36,3.42,9,5.87,9,5.87S157.86,319.33,153.6,316.39Zm-37.45,26.35a151.45,151.45,0,0,1,2.65-22.55c.8-.61,5.13-3.89,6.67-4.77,1.71-1,6.39-1,6.39-1a50.52,50.52,0,0,0-6,5.37,16.65,16.65,0,0,0-2.42,4.93A56.42,56.42,0,0,0,116.15,342.74Z" style="fill:#059669"></path><path d="M153.6,316.39c-4.27-2.93-10.66-3.42-10.66-3.42a44.41,44.41,0,0,1,18.33,1.47s-6-4.4-10.23-4.4-11.08-.49-11.08-.49c2.56-2.93,11.93-6.35,11.93-6.35a89.35,89.35,0,0,0-9.8.49c-3,.49-3.83,3.91-3.83,3.91s-.86-2-7.25-3.42-8.1,3.42-8.1,3.42h6c2.13,0,5.11,2.93,5.11,2.93s-6.81,0-9.37,1.47c-2.2,1.26-5,6.49-5.77,7.93a166.57,166.57,0,0,1,7.44-26.46l.17-.13a53.89,53.89,0,0,0,6-4.81l7.2,12-.6-10.21s6,1.81,7.81,3.61,7.21,7.8,7.21,7.8-2.41-9-5.41-12a68.57,68.57,0,0,0-8.41-6.6s6.61,0,9,1.2,9.61,6,9.61,6-4.8-8.4-8.41-10.21-13.21-1.8-13.21-1.8,4.2-3.6,7.21-3.6h8.41s-2.41-6-11.42-4.2-10.2,4.2-10.2,4.2-1.21-4.2-5.41-4.81-13.81-.6-13.81-.6,13.21,4.21,16.81,7.81c0,0-9.61.6-15.61.6s-14.42,5.41-14.42,5.41,12.62-3.61,25.83-1.8c0,0-9,.6-15,4.2s-12,12-12,12a30.82,30.82,0,0,1,12.62-7.21c7.2-1.8,17.41-4.2,17.41-4.2s-10.21,8.41-11.41,12.61a90.42,90.42,0,0,1-4.8,11.41s8.61-11,13.45-15.5A162.05,162.05,0,0,0,115.21,344c-1.78-7.29-7-22.37-20.56-29.92,2.57.7,6.28,1.72,9.27,2.58,5.12,1.47,9,5.86,9,5.86s-4.26-6.84-8.52-9.77-10.65-3.42-10.65-3.42A44.19,44.19,0,0,1,112,310.84s-6-4.4-10.23-4.4S90.71,306,90.71,306c2.56-2.93,11.93-6.35,11.93-6.35a91.29,91.29,0,0,0-9.8.48C89.86,300.57,89,304,89,304s-.85-1.95-7.25-3.42S73.67,304,73.67,304h6c2.13,0,5.12,2.94,5.12,2.94s-6.82,0-9.38,1.46-6,8.31-6,8.31,5.11-3.91,6.82-4.89,6.39-1,6.39-1a50.27,50.27,0,0,0-6,5.37c-2.13,2.44-3.83,9.78-3.83,9.78s3.83-4.89,5.11-6.36,5.54-2.93,5.54-2.93L83,325l5.12-9.78a37.36,37.36,0,0,0,4.26,3.91c3,2.45,10.65,13.69,10.65,13.69a79.82,79.82,0,0,1-3.41-9.29c-.7-2.82-5.73-8-7.49-9.67,17.38,8.15,22,28.67,22.81,33.41h-7.2l1.59,14h12.68l1.58-14h-7.45a62.69,62.69,0,0,1,6.22-19c-.21.81-.34,1.34-.34,1.34s3.84-4.89,5.12-6.35,5.54-2.94,5.54-2.94l-.43,8.31,5.11-9.77a39.87,39.87,0,0,0,4.26,3.91c3,2.44,10.66,13.68,10.66,13.68a79.4,79.4,0,0,1-3.41-9.28c-.85-3.43-8.1-10.27-8.1-10.27s7.25,2,12.36,3.42,9,5.87,9,5.87S157.86,319.33,153.6,316.39Zm-37.45,26.35a151.45,151.45,0,0,1,2.65-22.55c.8-.61,5.13-3.89,6.67-4.77,1.71-1,6.39-1,6.39-1a50.52,50.52,0,0,0-6,5.37,16.65,16.65,0,0,0-2.42,4.93A56.42,56.42,0,0,0,116.15,342.74Z" style="fill:#fff;opacity:0.4"></path></g><g id="freepik--character-1--inject-24"><ellipse cx="133.33" cy="377.97" rx="28.33" ry="11.18" style="fill:#059669"></ellipse><ellipse cx="133.33" cy="377.97" rx="28.33" ry="11.18" style="fill:#fff;opacity:0.5"></ellipse><path d="M113.06,197.2a9.74,9.74,0,0,0-3.24,3.25c-1.08,2-7.39,20.17-9.37,24.31s-2.88,5.58-.36,7,5.77-.72,7.93-4.68,6.12-14.95,6.84-17.47S118.1,197.56,113.06,197.2Z" style="fill:#059669;stroke:#263238;stroke-linecap:round;stroke-linejoin:round"></path><polygon points="152.05 360.65 153.54 371.32 152.54 371.81 149.57 366.11 152.05 360.65" style="fill:#263238;stroke:#263238;stroke-linecap:round;stroke-linejoin:round"></polygon><path d="M121.29,296.17s3.23,15.37,6.45,25.29,13.64,33,14.39,37-.25,4-.25,7.19-4.46,6.7-4.71,8.43,3.22,2,6.45,1,5.45-3.72,5.45-6,3-6.2,3-8.43-3.72-2.48-4-6.7-1.74-19.34-4.22-28.27-5-13.64-6.94-16.12-4.46-8.19-4-10.17S121.29,296.17,121.29,296.17Z" style="fill:#fff;stroke:#263238;stroke-linecap:round;stroke-linejoin:round"></path><path d="M149.07,369.08c0-2.23,3-6.2,3-8.43,0-.94-.66-1.53-1.45-2.21-1.1,2.95-3.34,8.06-6.74,10.89-2.11,1.77-3.5,1.74-4.38,1.23-1.1,1.41-2.19,2.65-2.31,3.48-.25,1.74,3.22,2,6.45,1S149.07,371.32,149.07,369.08Z" style="fill:#263238;stroke:#263238;stroke-linecap:round;stroke-linejoin:round"></path><path d="M127,299.64s-1,8.18-1,13.39-3,39.56-4,46.13c-.93,6.38-2.73,9.18-3.72,12.65s-2,7.2-3.72,8.19,0,2,3,1.73,6-1.73,6.2-4.46,2.61-5.13,4.22-6.2c3-2-.74-7.94,3.47-20.84,1.86-5.66,6.45-13.14,7.44-21.82s-.74-16.62-.74-18.6,1.74-9.43,1.74-9.43Z" style="fill:#fff;stroke:#263238;stroke-linecap:round;stroke-linejoin:round"></path><path d="M128.75,371.49c3.22-1.23.88-4,.61-7-2.59,2.51-6.05,9-8.07,11a4.23,4.23,0,0,1-4.41.93c-.62,1.66-1.34,3-2.28,3.54-1.74,1,0,2,3,1.73s6-1.73,6.2-4.46S126.94,372.18,128.75,371.49Z" style="fill:#263238;stroke:#263238;stroke-linecap:round;stroke-linejoin:round"></path><path d="M129.23,369.08,130,380h-2l-1.74-7.44S128,368.84,129.23,369.08Z" style="fill:#263238;stroke:#263238;stroke-linecap:round;stroke-linejoin:round"></path><path d="M124.76,195.4l-7.56,2.88s-4.14,9.91-5.58,17.11.54,14.59,2,19.09,3.24,30.44,4,40.34S119.72,299,119.72,299s3.24,2.53,9.73,3.79,15.67-.72,15.67-.72,5.4-15.67,6.48-24.86-7.93-24.13-10.81-30.61-4-16.93-3.42-20,7.38-26.29,5-27.38S131.61,195,124.76,195.4Z" style="fill:#263238;stroke:#263238;stroke-linecap:round;stroke-linejoin:round"></path><path d="M124.76,189.1s-.72,5-1.26,7.2-4.68,9.73-3.06,13,7,3.24,9.37-2.34a31.19,31.19,0,0,0,2-12.07l.9-5.4S126.93,191.44,124.76,189.1Z" style="fill:#fff;stroke:#263238;stroke-linecap:round;stroke-linejoin:round"></path><path d="M146.74,181.18a3.74,3.74,0,0,0-4.3-1.68c3.26-2.69,5.32-7.05,2.13-13.27-4-7.75-13.32-5.94-13.32-5.94a9.84,9.84,0,0,0-8.83,4.68c-3.24,5.22-1.44,12.42,1.26,14.41,2.5,1.82,10.34,3.79,15.08,2.25-2.77,2.87-4.56,7-2,10.6a6,6,0,0,0,9.65.65C149.62,189.1,148.72,184.6,146.74,181.18Z" style="fill:#263238;stroke:#263238;stroke-linecap:round;stroke-linejoin:round"></path><path d="M124.32,179.78s-2.17-3.58-2.72-1.11.49,4.33,1.21,4.79a2,2,0,0,0,1.42.29" style="fill:#fff;stroke:#263238;stroke-linecap:round;stroke-linejoin:round"></path><path d="M124.21,173.41s-3.25,13.33,1.26,18,9.54-2.88,13.68-8.64l1.26-3.78a48.71,48.71,0,0,0-3.42-5.41,20.89,20.89,0,0,1-3.06-5.58S129.25,174,124.21,173.41Z" style="fill:#fff;stroke:#263238;stroke-linecap:round;stroke-linejoin:round"></path><path d="M138.06,182.85s3.75-1.87,2.89.51-2.72,3.41-3.57,3.41a2.08,2.08,0,0,1-1.37-.51" style="fill:#fff;stroke:#263238;stroke-linecap:round;stroke-linejoin:round"></path><path d="M131.76,178.25a4.16,4.16,0,0,1,4.94-.17" style="fill:none;stroke:#263238;stroke-miterlimit:10;stroke-width:0.5px"></path><path d="M129.2,176.38s-1.87-2-3.91-1.19" style="fill:none;stroke:#263238;stroke-miterlimit:10;stroke-width:0.5px"></path><line x1="128.52" y1="184.89" x2="129.71" y2="185.41" style="fill:none;stroke:#263238;stroke-miterlimit:10;stroke-width:0.5px"></line><path d="M126.65,186.77a5.8,5.8,0,0,0,4.43.68" style="fill:none;stroke:#263238;stroke-miterlimit:10;stroke-width:0.5px"></path><path d="M129.32,180.23a3,3,0,1,1-1.73-3.65A2.86,2.86,0,0,1,129.32,180.23Z" style="fill:none;stroke:#263238;stroke-miterlimit:10;stroke-width:0.5px"></path><path d="M136.3,182.11a3,3,0,1,1-1.72-3.65A2.86,2.86,0,0,1,136.3,182.11Z" style="fill:none;stroke:#263238;stroke-miterlimit:10;stroke-width:0.5px"></path><line x1="129.37" y1="179.44" x2="130.79" y2="179.85" style="fill:none;stroke:#263238;stroke-miterlimit:10;stroke-width:0.5px"></line><line x1="136.36" y1="181.49" x2="139.25" y2="181.83" style="fill:none;stroke:#263238;stroke-miterlimit:10;stroke-width:0.5px"></line><path d="M123.5,196.3A85.93,85.93,0,0,0,117,214.67c-1.8,9-1.62,25.76-1.26,32.24s0,25,0,25l-8.28-3.6s.36-11.71,1.8-19.27a107.76,107.76,0,0,0,1.44-21.25c-.18-4.14-2-10.09-.9-15.67s2.7-14.41,3.24-15S123.5,196.3,123.5,196.3Z" style="fill:#059669;stroke:#263238;stroke-linecap:round;stroke-linejoin:round"></path><path d="M131.79,195.94s-3.24,12.79-5.22,24.5,2.88,51,2.88,51a82.31,82.31,0,0,0,10.44-1.26c7.93-1.26,11.71-3.6,11.71-3.6s-4.68-11.89-7.75-18-5.4-11-5.4-11a37.26,37.26,0,0,1,.9-14c2-7.39,7.39-22.51,5.22-24.32S131.79,195.94,131.79,195.94Z" style="fill:#059669;stroke:#263238;stroke-linecap:round;stroke-linejoin:round"></path><path d="M139.35,205.13s-2,9-2.7,13.14-2.16,10.27-2.16,10.27-12.61.54-15.67.36-6.3-.18-6.3-.18l1.08,5.76s10.08,3.6,16.39,4.68,9.72,2.71,10.8.73,4.69-22.34,6-30.08,2.16-9.54-3.25-11" style="fill:none;stroke:#263238;stroke-linecap:round;stroke-linejoin:round"></path><path d="M126.93,223.86s6.84-.9,7.38-1.08,7.56,2.88,7.56,2.88-.36.9-.9,1.08-4.86-2-4.86-2l-.72.18,5.4,3.6s.72.9,0,1.26-6.48-3.42-6.48-3.42l5,4.86a1.77,1.77,0,0,1-2,0c-.9-.72-2.88-2.7-2.88-2.7s2.16,2.52,1.08,2.7-3.06-2.88-3.06-2.88l-3.24-.54-3.42-.36Z" style="fill:#fff;stroke:#263238;stroke-linecap:round;stroke-linejoin:round"></path><path d="M116.49,224s-4.54-5.2-4.82-5.69-7.58-2.84-7.58-2.84a2.1,2.1,0,0,0,0,1.41c.29.49,5,1.73,5,1.73l.42.61-6.44-.87s-1.13.2-.83.94,7.13,1.72,7.13,1.72l-7,.32a1.77,1.77,0,0,0,1.49,1.31c1.15.05,3.94-.12,3.94-.12s-3.29.46-2.59,1.31,4.2-.14,4.2-.14l2.79,1.74,2.8,2Z" style="fill:#fff;stroke:#263238;stroke-linecap:round;stroke-linejoin:round"></path><path d="M103.69,223.14s17.65.54,20,.54a19.28,19.28,0,0,1,3.25.18l-1.26,8.82a109.65,109.65,0,0,1-13.33.54c-9.55,0-13.87.54-13.51-3.06S103.69,223.14,103.69,223.14Z" style="fill:#059669;stroke:#263238;stroke-linecap:round;stroke-linejoin:round"></path></g><g id="freepik--character-2--inject-24"><ellipse cx="184.02" cy="385.42" rx="28.33" ry="11.18" style="fill:#059669"></ellipse><ellipse cx="184.02" cy="385.42" rx="28.33" ry="11.18" style="fill:#fff;opacity:0.5"></ellipse><path d="M177.45,157s-5.88.37-9.66,7.5-2,20-.64,24,7.57,22.95,11.14,36.2,10,25.05,21.51,24.63,27-5.77,22-25.17-15.86-27.38-18-32.33-2.6-10.07-3.55-20.84-8.32-16.72-15.7-18.87S177.45,157,177.45,157Z" style="fill:#263238;stroke:#263238;stroke-linecap:round;stroke-linejoin:round"></path><path d="M199.11,188.11c1.88,1.74,2.62,1.79,2.62,1.79" style="fill:none;stroke:#fff;stroke-linecap:round;stroke-linejoin:round;stroke-width:0.5px"></path><path d="M182.48,158.35s.16,7.73,8.36,19.56a80.64,80.64,0,0,0,6.77,8.69" style="fill:none;stroke:#fff;stroke-linecap:round;stroke-linejoin:round;stroke-width:0.5px"></path><path d="M184.37,163.55s7.42,17.35,15.94,22.24" style="fill:none;stroke:#fff;stroke-linecap:round;stroke-linejoin:round;stroke-width:0.5px"></path><path d="M206.46,207.56s12.14,14,12.3,24-6.15,14.2-6.78,14.2" style="fill:none;stroke:#fff;stroke-linecap:round;stroke-linejoin:round;stroke-width:0.5px"></path><path d="M212.56,209.64c3.37,6.52,7.1,15.5,6.2,21.9" style="fill:none;stroke:#fff;stroke-linecap:round;stroke-linejoin:round;stroke-width:0.5px"></path><path d="M207.72,201.25s1.2,1.82,2.82,4.66" style="fill:none;stroke:#fff;stroke-linecap:round;stroke-linejoin:round;stroke-width:0.5px"></path><path d="M171.28,172.39s-4.63,9.43-4.13,16.07" style="fill:none;stroke:#fff;stroke-linecap:round;stroke-linejoin:round;stroke-width:0.5px"></path><path d="M169.07,177.91s-.15,5.83,1.58,9" style="fill:none;stroke:#fff;stroke-linecap:round;stroke-linejoin:round;stroke-width:0.5px"></path><path d="M210.86,267.17s-2.24,5-2.24,6.43.28,7.55,1.12,6.43,0-5.31,1.12-5.59,2,.56.84,3.91-2,6.71.28,5,2.23-3.92,3.07-8.95a22.37,22.37,0,0,0-.28-8.95Z" style="fill:#fff;stroke:#263238;stroke-linecap:round;stroke-linejoin:round"></path><path d="M203.59,193.37l4.47,41.09,8.11,31.31-7,3.08s-9.22-25.72-11.46-30.47-3.08-8.67-3.08-10.63S203.59,193.37,203.59,193.37Z" style="fill:#059669;stroke:#263238;stroke-linecap:round;stroke-linejoin:round"></path><path d="M163.06,308s1.11,5.59,1.39,8.38-.56,12.86.84,22.37S174,376.2,174,376.2s-7.27,6.42-7.27,9.5,2.24,2.52,5.87.28,7.27-7.27,7.55-10.62-2.8-22.93-1.68-31.59-.56-23.76-.56-29.91v-6.15Z" style="fill:#fff;stroke:#263238;stroke-linecap:round;stroke-linejoin:round"></path><path d="M171.16,382.62c-1-.48-.43-2.4.19-3.91-2.08,2.14-4.66,5.16-4.66,7,0,3.07,2.24,2.52,5.87.28a19.26,19.26,0,0,0,6.85-8.08C176.28,381.32,172.44,383.26,171.16,382.62Z" style="fill:#263238;stroke:#263238;stroke-linecap:round;stroke-linejoin:round"></path><path d="M176.75,309.94s-.28,10.07.84,14.26,8.11,25.72,9.23,32.15a155.19,155.19,0,0,1,2.23,20.4c0,4.48,4.2,14.54,7,15.1s4.48.56,3.64-3.91-6.15-11.47-6.15-11.47S196.32,348,195.2,339,191,321.12,191,320.29s1.4-11.19,1.4-11.19Z" style="fill:#fff;stroke:#263238;stroke-linecap:round;stroke-linejoin:round"></path><path d="M197.61,382.8c-.34,1.41-1,2.62-2.13,2.62-2.79,0-5.59-4.75-5.59-4.75l-.14.24c1.31,4.75,4.19,10.52,6.29,10.94,2.8.56,4.48.56,3.64-3.91A19.08,19.08,0,0,0,197.61,382.8Z" style="fill:#263238;stroke:#263238;stroke-linecap:round;stroke-linejoin:round"></path><path d="M175.36,188.34s-19.85,4.19-20.13,5.31,6.43,36.06,6.43,37.46-7.83,19.57-8.39,30.75,3.64,48.36,3.64,48.36,8.38,3.64,16.49,3.64,21.8-2,21.8-2,6.71-21.53,7.27-39.7-7.55-40.81-7.55-40.81,8.67-36.62,8.67-38S185.14,187.22,175.36,188.34Z" style="fill:#263238;stroke:#263238;stroke-linecap:round;stroke-linejoin:round"></path><path d="M194.92,231.39s8.67-36.62,8.67-38-18.45-6.15-28.23-5c0,0-19.85,4.19-20.13,5.31s6.43,36.06,6.43,37.46c0,1-4,10.51-6.46,19.94a61.78,61.78,0,0,0,11.49,4.66c8.67,2.52,12-1.12,12-1.12s-.84,2,4.19,2.52c4.46.49,12,.32,17.92-3.22A160.13,160.13,0,0,0,194.92,231.39Z" style="fill:#059669;stroke:#263238;stroke-linecap:round;stroke-linejoin:round"></path><path d="M179.17,245.92c-.4,2.74-.7,4.56-.7,4.56" style="fill:none;stroke:#263238;stroke-linecap:round;stroke-linejoin:round"></path><path d="M180.71,209a130,130,0,0,1,.54,20c-.27,3.36-.75,7.35-1.24,11" style="fill:none;stroke:#263238;stroke-linecap:round;stroke-linejoin:round"></path><path d="M177.71,186.18s-5.39,1.8-7.79,3.9-6.29,5.69-6.29,5.69l9.89.6L180.71,209l5.09-12.28h6a10.66,10.66,0,0,1,4.8,1.2s-6.89-9.29-10.79-11.09A13,13,0,0,0,177.71,186.18Z" style="fill:#fff;stroke:#263238;stroke-linecap:round;stroke-linejoin:round"></path><path d="M174.42,182.59s.9,12.58,3.29,15.88,5.69-5.39,5.69-9.29.3-9.29.3-9.29Z" style="fill:#fff;stroke:#263238;stroke-linecap:round;stroke-linejoin:round"></path><path d="M155.23,193.65s-12,40-12,42.77,3.35,5.87,6.71,3.91S160,219.65,160,219.65Z" style="fill:#059669;stroke:#263238;stroke-linecap:round;stroke-linejoin:round"></path><polygon points="139.57 219.09 152.99 245.09 171.44 247.04 160.54 215.46 139.57 219.09" style="fill:#fff;stroke:#263238;stroke-linecap:round;stroke-linejoin:round"></polygon><path d="M155.79,235.58l5-9.22,5.87-2,.84,1.12-3.36,2s4.2.27,5.32.27.83,1.68.83,1.68l-.55,1.12s.55,3.63.55,4.75-12.3,4.75-12.3,4.75Z" style="fill:#fff;stroke:#263238;stroke-linecap:round;stroke-linejoin:round"></path><path d="M156.29,232.82l3.79,10.24s-7.12,3.33-12.24,3.33-7.78-6.67-5.78-10S156.29,232.82,156.29,232.82Z" style="fill:#059669;stroke:#263238;stroke-linecap:round;stroke-linejoin:round"></path><path d="M179.48,160.1l-9.33,11.26s-.32,8.61,3.94,15.23c5.85,9.12,13.47-9,13.47-9Z" style="fill:#fff;stroke:#263238;stroke-linecap:round;stroke-linejoin:round"></path><path d="M175.68,174.1c.1.81-.15,1.51-.55,1.56s-.81-.57-.91-1.37.14-1.51.55-1.56S175.58,173.3,175.68,174.1Z" style="fill:#263238"></path><path d="M181,174.53c0,.81-.34,1.47-.75,1.47s-.72-.67-.72-1.48.34-1.47.74-1.47S181,173.72,181,174.53Z" style="fill:#263238"></path><path d="M175.35,181.66a6.94,6.94,0,0,0,4.55-.12" style="fill:none;stroke:#263238;stroke-linecap:round;stroke-linejoin:round;stroke-width:0.5px"></path><path d="M178.62,171a2.83,2.83,0,0,1,3.68.18" style="fill:none;stroke:#263238;stroke-linecap:round;stroke-linejoin:round;stroke-width:0.5px"></path><path d="M175.86,171.41a2,2,0,0,0-3.12-.19" style="fill:none;stroke:#263238;stroke-linecap:round;stroke-linejoin:round;stroke-width:0.5px"></path><path d="M176.78,173.26a4,4,0,0,1-.18,2.58c-.55,1.67-1.29,2.59-.74,3a3.77,3.77,0,0,0,1.66.37" style="fill:none;stroke:#263238;stroke-linecap:round;stroke-linejoin:round;stroke-width:0.5px"></path></g><g id="freepik--character-5--inject-24"><ellipse cx="356.22" cy="376.47" rx="38.76" ry="11.18" style="fill:#059669"></ellipse><ellipse cx="356.22" cy="376.47" rx="38.76" ry="11.18" style="fill:#fff;opacity:0.5"></ellipse><path d="M351.58,175.67s-1.92-2.47-2.84-1.41,2,7.62,3.25,7.06S351.58,175.67,351.58,175.67Z" style="fill:#fff;stroke:#263238;stroke-linecap:round;stroke-linejoin:round"></path><path d="M366.93,176s1.82-2.4,2.78-1.3-1.65,7.55-2.95,6.94S366.93,176,366.93,176Z" style="fill:#fff;stroke:#263238;stroke-linecap:round;stroke-linejoin:round"></path><path d="M353.82,191.71s-3.27,1.42-3.64,3.92,1,56,1,56l22.43,1.21-1-57.9a22.2,22.2,0,0,0-9-3.74A25.92,25.92,0,0,0,353.82,191.71Z" style="fill:#fff;stroke:#263238;stroke-linecap:round;stroke-linejoin:round"></path><path d="M342.49,249.52l34.35,1.23s3.11,25.49,4.59,42.16,3.7,32.08,3.47,43.67.05,28.94.11,29.55,3.64,3.14,5.91,5.09,7.07,3.8,5.48,4.91-3.65,1.41-7.28.76-7.84-3.13-8.94-3.7l-1.11-.57-.06,1.66-4.14-1.66s-.7-.79-1.26-4.7-1.43-16.05-1.88-21.2-5.22-42.13-7-50.72-5.45-23.52-5.45-23.52-14,48.44-15.74,54.52-9.14,38.89-9.26,39.93-2,3.41-1.95,4-1.86,2.78-3.37,4.71-7.86,3.69-9.54,3.77-2.4-3.4.94-6a70.89,70.89,0,0,0,6.41-5.89s1.58-24.68,1.51-32.53,4.57-33.71,5.43-35.82,5.64-31.08,5.64-31.08Z" style="fill:#263238;stroke:#263238;stroke-linecap:round;stroke-linejoin:round"></path><path d="M353.61,197.81s3.64,22.22,4.06,24.57-5.22,48.83-5.22,48.83a17.45,17.45,0,0,1-8.61-.92c-5-1.71-9.52-3.58-9.52-3.58l9.54-29.44-8.62-39.42a32.3,32.3,0,0,1,7.18-3,77.47,77.47,0,0,1,11.28-2.37Z" style="fill:#059669;stroke:#263238;stroke-linecap:round;stroke-linejoin:round"></path><polygon points="357.25 202.24 359.7 205.74 356.47 247.87 361.54 253.65 364.02 248.06 361.62 206.36 364.14 201.81 360.56 196.45 357.25 202.24" style="fill:#263238;stroke:#263238;stroke-linecap:round;stroke-linejoin:round"></polygon><path d="M366.68,191.84s-2.41,17.85-2.35,19.25-.55,13.15-.5,14.25,5,45.84,5,45.84a28.44,28.44,0,0,0,9.53.14c5.52-.8,11.4-4.41,11.4-4.41l-11.1-29.4,4.25-41.27S369.89,192.46,366.68,191.84Z" style="fill:#059669;stroke:#263238;stroke-linecap:round;stroke-linejoin:round"></path><path d="M360.36,199.83l-4.58,4.4s-3-10.17-3-11.74a5,5,0,0,1,2.35-4.54c1.71-.94,8.56-.17,10.19.61s2.89,4.53,2.89,4.53L364.55,205Z" style="fill:#fff;stroke:#263238;stroke-linecap:round;stroke-linejoin:round"></path><path d="M354.63,184.51s.55,5.63,1.94,8.45,3.33,7.19,3.79,6.87,4.18-6.26,4.28-7.52.37-6.26.37-6.26Z" style="fill:#fff;stroke:#263238;stroke-linecap:round;stroke-linejoin:round"></path><path d="M354.93,165.75s-3.11,1.85-3.55,3.59-.14,10.67,1.73,14.55,5.35,7.07,7.06,7.09,5.66-2.65,6.21-6.59a59.07,59.07,0,0,0,.87-10.75c-.2-2.64,1.95-1.46-1.32-4.92S356.84,164.06,354.93,165.75Z" style="fill:#fff;stroke:#263238;stroke-linecap:round;stroke-linejoin:round"></path><path d="M357.31,178.06c0,.62-.26,1.13-.57,1.13s-.56-.51-.56-1.13.25-1.12.56-1.12S357.31,177.44,357.31,178.06Z" style="fill:#263238"></path><path d="M362.64,178.06c0,.62-.25,1.13-.56,1.13s-.56-.51-.56-1.13.25-1.12.56-1.12S362.64,177.44,362.64,178.06Z" style="fill:#263238"></path><path d="M354.78,176.24a1.74,1.74,0,0,1,2.53-.42" style="fill:none;stroke:#263238;stroke-linecap:round;stroke-linejoin:round;stroke-width:0.5px"></path><path d="M360.82,176s1.12-1.83,3.09.28" style="fill:none;stroke:#263238;stroke-linecap:round;stroke-linejoin:round;stroke-width:0.5px"></path><polyline points="360.4 177.92 360.68 182.84 358.43 182.56" style="fill:none;stroke:#263238;stroke-linecap:round;stroke-linejoin:round;stroke-width:0.5px"></polyline><path d="M357.73,184.39a6.85,6.85,0,0,0,5-.15" style="fill:none;stroke:#263238;stroke-linecap:round;stroke-linejoin:round;stroke-width:0.5px"></path><path d="M352.71,165.58s-3.06-1.09-3.57,2,2.12,8.76,2.12,8.76.42-1.41,1.14-3.13,2.27-2.67,1.68-5.17S352.71,165.58,352.71,165.58Z" style="fill:#263238;stroke:#263238;stroke-linecap:round;stroke-linejoin:round"></path><path d="M353.26,167.45s1.54,2.51,5.85,3.12,6.51,0,7,.77.54,5.16.54,5.16,1.44.47,1.53-1.25a6.11,6.11,0,0,1,1.75-3.6c.46-.47,2.78-1.89.23-5.8s-5.77-5.15-11.33-5.14S349.92,163.55,353.26,167.45Z" style="fill:#263238;stroke:#263238;stroke-linecap:round;stroke-linejoin:round"></path><path d="M382.88,196.24s8,27.61,8.51,30.5-2.74,4.55-6.14,3.32-5.63-19-5.63-19Z" style="fill:#059669;stroke:#263238;stroke-linecap:round;stroke-linejoin:round"></path><path d="M388,220.76s-12.87-2.25-16.22-2.24S352.35,220,352.35,220l-.6,5.58s24.54,5.53,29.38,6.14,9.65.39,10.15-2.71-.62-4.54-.62-4.54" style="fill:#059669;stroke:#263238;stroke-linecap:round;stroke-linejoin:round"></path><path d="M335.24,197.85s.33,16,.7,24.63,2.78,11.8,7.18,11.79.83-24.8.83-24.8" style="fill:#059669;stroke:#263238;stroke-linecap:round;stroke-linejoin:round"></path><path d="M352.35,220s-3.21-1.64-5.09-1.64-7.39,3.53-7.37,4.15,3,1.44,6.75,1a23.77,23.77,0,0,1,6.07,0Z" style="fill:#fff;stroke:#263238;stroke-linecap:round;stroke-linejoin:round"></path><path d="M374,215.83a25.51,25.51,0,0,1,4.79-.63c2.09,0,4.57,4.12,4.57,4.12l-8.14.64Z" style="fill:#fff;stroke:#263238;stroke-linecap:round;stroke-linejoin:round"></path><path d="M340.59,224.16,372.25,215s.6-.62,1.71.82a8.74,8.74,0,0,1,1.22,4.13s-18.69,8.71-24.45,11.2-7.68,6.42-10.77,2.71-1.13-6.82-1.13-6.82" style="fill:#059669;stroke:#263238;stroke-linecap:round;stroke-linejoin:round"></path></g><g id="freepik--character-4--inject-24"><ellipse cx="315.97" cy="386.17" rx="28.33" ry="11.18" style="fill:#059669"></ellipse><ellipse cx="315.97" cy="386.17" rx="28.33" ry="11.18" style="fill:#fff;opacity:0.5"></ellipse><path d="M327.05,169.68a15.42,15.42,0,0,0,4.06-8.42c.45-4.82-5.11-7.37-8.87-7.22a11.84,11.84,0,0,0-6.47,2.4S307,156,300.43,161s-5.72,19.86-5.27,25.42a84.14,84.14,0,0,1-.3,12.79,64.36,64.36,0,0,0,14.44,3.91c7.67,1.05,18.05-.75,19.1-1s-3-1.21-3.61-7.07.9-12.64,1.51-15.8-.45-9.32-.45-9.32Z" style="fill:#263238;stroke:#263238;stroke-linecap:round;stroke-linejoin:round"></path><path d="M326.25,156.45s-1.53,5.28-2.38,7.33" style="fill:none;stroke:#fff;stroke-linecap:round;stroke-linejoin:round;stroke-width:0.5px"></path><path d="M320,158.67s1.36,4.42-3.41,12.09-14.47,15.84-14.81,21.46" style="fill:none;stroke:#fff;stroke-linecap:round;stroke-linejoin:round;stroke-width:0.5px"></path><path d="M303.94,179.44s-6,10.05-3.4,16.18" style="fill:none;stroke:#fff;stroke-linecap:round;stroke-linejoin:round;stroke-width:0.5px"></path><path d="M318.78,196.75s8.12,4.21,9.32,4.66,2.26,1.51,3.16,4.21,5.87,22.26,6.32,24.37-3.76,4.21-6.47,4.36-6.17-2.25-6.17-4.06S318.78,196.75,318.78,196.75Z" style="fill:#059669;stroke:#263238;stroke-linecap:round;stroke-linejoin:round"></path><path d="M322.09,228.64a57.7,57.7,0,0,1,5.41-6.17c1.8-1.5,5.56-2.71,7.82-1.5s1.81,3.3.9,3.61-3.16.3-4.66,1.2-3.91,2.56-5.56,3A9.08,9.08,0,0,1,322.09,228.64Z" style="fill:#fff;stroke:#263238;stroke-linecap:round;stroke-linejoin:round"></path><polygon points="297.65 376.63 297.51 384.73 298.46 384.73 299.67 379.19 297.65 376.63" style="fill:#263238;stroke:#263238;stroke-linecap:round;stroke-linejoin:round"></polygon><path d="M328.64,307.89s-1.49,20.13-5.4,33.18-11.74,33.35-11.93,36.52c0,0,4.85,4.66,6.52,5.59s3,.75,1.87,1.68-4.29,1.49-6.71.56-4.29-3.73-5.59-4.47-3-1.68-3.17-3.36,2.42-4.1,2.42-4.1,6.15-13.79,5.41-22.55,1.11-18.63,3-22.18a46.73,46.73,0,0,0,3-7.26L312.8,309S323.42,305.84,328.64,307.89Z" style="fill:#fff;stroke:#263238;stroke-linecap:round;stroke-linejoin:round"></path><path d="M317.83,383.18a8.71,8.71,0,0,1-.78-.52c-1,.46-3.46,1.4-5.37-.22-2.14-1.82-4.43-5.09-6.61-7.11a3.66,3.66,0,0,0-.84,2.26c.18,1.68,1.86,2.61,3.17,3.36s3.16,3.54,5.59,4.47,5.59.37,6.71-.56S319.51,384.12,317.83,383.18Z" style="fill:#263238;stroke:#263238;stroke-linecap:round;stroke-linejoin:round"></path><path d="M326,306s3.64,10.9,3.64,13.7-17.61,42.49-19.29,46.4-4.2,11.18-4.2,11.18a9.26,9.26,0,0,0,3.64,5.31c3.07,2.24,4.19,4.2,2.79,4.76s-7.82,1.12-9.5-1.12-3.35-7-5-8.39,0-4.47,1.12-5.31a26.09,26.09,0,0,0,3.07-3.35s4.19-8.95,4.19-16.78,1.4-15.37,5.6-21.8a49.46,49.46,0,0,0,5.59-10.9l-4.48-9.23S320.44,305.47,326,306Z" style="fill:#fff;stroke:#263238;stroke-linecap:round;stroke-linejoin:round"></path><path d="M310,382.76c-1.63.79-2.78,1.38-6.33-2.65a76.34,76.34,0,0,1-5.28-6.67c-.9,1.28-1.61,3.35-.31,4.43,1.68,1.4,3.35,6.15,5,8.39s8.11,1.68,9.5,1.12S312.93,384.94,310,382.76Z" style="fill:#263238;stroke:#263238;stroke-linecap:round;stroke-linejoin:round"></path><path d="M311,195s-18.5,2.85-19.11,3.91,5.72,35.79,6.32,38.5-3.61,9.78-6,23.46.47,17,4.53,26.76S312.16,312,312.16,312l17.75-3.16s4.06-31.73,2.1-47.07a81.81,81.81,0,0,0-7.82-26.17l.45-8.13s5-3.08,5.19-7-2.63-9.55-5.19-14.66S315,195,311,195Z" style="fill:#059669;stroke:#263238;stroke-linecap:round;stroke-linejoin:round"></path><path d="M312.31,192.69s-3.91.45-4.51,1.2S305.39,205,305.39,205s7.07-2.1,7.82-2.1,6.92,7.22,6.92,7.22v-6.32l5.41,4.06a54.83,54.83,0,0,0-3.91-8.72C319.23,195,315.62,192.84,312.31,192.69Z" style="fill:#fff;stroke:#263238;stroke-linecap:round;stroke-linejoin:round"></path><path d="M312.61,183.67s-1.2,11.58-.45,12.93,5.86,9.18,5.86,9.18-.6-6-.6-9.78a46,46,0,0,1,1.66-9.63Z" style="fill:#fff;stroke:#263238;stroke-linecap:round;stroke-linejoin:round"></path><path d="M323.14,164.56s-2.86,7.07-5.72,9.63a26.83,26.83,0,0,1-5.26,3.76s-.3,5,.45,5.72,6.92,7.06,9,6.16,5.27-6.77,5.57-11.43a38,38,0,0,0-1.35-10.53Z" style="fill:#fff;stroke:#263238;stroke-linecap:round;stroke-linejoin:round"></path><path d="M325.23,173.31a2,2,0,0,0-1.19,2.05c0,1.7,1.53,3.06,1.53,3.91s-1.87,1.37-1.87,1.37" style="fill:none;stroke:#263238;stroke-linecap:round;stroke-linejoin:round;stroke-width:0.5px"></path><path d="M322.51,174.16s-.86-2-3.58-1.36" style="fill:none;stroke:#263238;stroke-linecap:round;stroke-linejoin:round;stroke-width:0.5px"></path><path d="M323.19,183.36a3.92,3.92,0,0,1-3.41-.85" style="fill:none;stroke:#263238;stroke-linecap:round;stroke-linejoin:round;stroke-width:0.5px"></path><path d="M320.8,175.44c0,.71-.19,1.28-.42,1.28s-.43-.57-.43-1.28.19-1.28.43-1.28S320.8,174.74,320.8,175.44Z" style="fill:#263238"></path><path d="M325.23,176c0,.7-.19,1.28-.43,1.28s-.42-.58-.42-1.28.19-1.28.42-1.28S325.23,175.33,325.23,176Z" style="fill:#263238"></path><path d="M295.31,198.56a8.84,8.84,0,0,0-5,1.35c-2.11,1.5-1.65,7.37-.6,13.69s6.77,23.91,8.12,26.92a8.49,8.49,0,0,0,7.37,5c2.86,0,21.66-10.08,21.66-10.08l-1.66-4.66S309.15,234.8,308,235s-6.47-26.77-6.47-26.77" style="fill:#059669;stroke:#263238;stroke-linecap:round;stroke-linejoin:round"></path><path d="M312.46,231.8s-6.17-.16-7.07-.16-5.11,4.82-6.17,6,.15,1.5.61,1.66,3.3-1.06,3.3-1.06-2.55,5-1.95,5.87,2.1,1.5,2.71.9a6.19,6.19,0,0,1,2.85-1.35,3.63,3.63,0,0,0,3-1.36c1.21-1.35,3.16-6.76,3.16-6.76l3-.91V232.4Z" style="fill:#fff;stroke:#263238;stroke-linecap:round;stroke-linejoin:round"></path><path d="M311.86,231.64l1.65,10.08s20.61-5.71,23.16-6.92,1.06-7.67-.9-9.32S311.86,231.64,311.86,231.64Z" style="fill:#059669;stroke:#263238;stroke-linecap:round;stroke-linejoin:round"></path><path d="M312.16,312l17.75-3.16s4.06-31.73,2.1-47.07a84.36,84.36,0,0,0-1.75-9.35,48.16,48.16,0,0,1-13.73,3.33c-11.65,1.29-19.44-2.06-22.41-3.67-.7,2.57-1.38,5.48-2,8.78-2.4,13.69.47,17,4.53,26.76S312.16,312,312.16,312Z" style="fill:#263238;stroke:#263238;stroke-linecap:round;stroke-linejoin:round"></path><path d="M315.27,274.85a61,61,0,0,1,6.66,16.46" style="fill:none;stroke:#fff;stroke-linecap:round;stroke-linejoin:round;stroke-width:0.75px"></path><path d="M309.82,267.26a37.63,37.63,0,0,1,3.44,4.44" style="fill:none;stroke:#fff;stroke-linecap:round;stroke-linejoin:round;stroke-width:0.75px"></path></g><g id="freepik--character-3--inject-24"><ellipse cx="252.79" cy="391.38" rx="45.66" ry="11.18" style="fill:#059669"></ellipse><ellipse cx="252.79" cy="391.38" rx="45.66" ry="11.18" style="fill:#fff;opacity:0.5"></ellipse><path d="M249.33,162.85s-1.68-3.07-2.91-2,.77,8.9,2.3,8.44S249.33,162.85,249.33,162.85Z" style="fill:#fff;stroke:#263238;stroke-linecap:round;stroke-linejoin:round"></path><path d="M218.21,269.13a105.25,105.25,0,0,0,29.41,7.61c16.25,1.64,35.18-10.08,35.18-10.08s-18.93-29.21-19.13-29.83-22.83-1.44-22.83-1.44Z" style="fill:#263238;stroke:#263238;stroke-linecap:round;stroke-linejoin:round"></path><path d="M232,244.81s-7.55,32.15-7.55,43.61,0,20.68-.56,29.91-3.63,27.11-2.51,36.34,2.51,27.4,2.51,27.4-9.78,7.82-9.78,10.62,5.87,2,10.9-1.12,6.43-5.31,6.43-5.31l1.12,1.12,1.68-1.68.56-6.15,5.59-50.32,7.83-50,13.69,60.1,12,41.66,2.8,1.12.56,2.51,2.79,1.68,2.8.28,2.79,2.51s8.95,2.8,10.63,2.24,1.67-2.79-2.8-6.15-12-5.31-12-5.31-.84-28.24-2.79-44.73-4.48-30.47-4.48-42.21S270.31,247,270.31,247Z" style="fill:#263238;stroke:#263238;stroke-linecap:round;stroke-linejoin:round"></path><path d="M251.3,181.91l-20.87,8,1.67,57.4s7.09,3.54,19.57,3.36,21-.7,21-.7l4.95-62.67-20.13-4.66S253.72,181.35,251.3,181.91Z" style="fill:#fff;stroke:#263238;stroke-linecap:round;stroke-linejoin:round"></path><polygon points="251.49 191.97 253.72 197.75 247.39 242.66 250.74 250.12 256.33 241.55 255.59 198.12 258.2 192.34 255.21 186.38 251.49 191.97" style="fill:#263238;stroke:#263238;stroke-linecap:round;stroke-linejoin:round"></polygon><path d="M251.33,179.28l-3.38,4,.62,12.44,7.06-5.68,5.68,8.29s2.3-10.9,1.38-14.28-4.14-5.53-5.83-5.22S251.33,179.28,251.33,179.28Z" style="fill:#fff;stroke:#263238;stroke-linecap:round;stroke-linejoin:round"></path><path d="M250.41,173.45s0,.24.06.65c.19,2.05.78,8.35,1.17,10.4.46,2.46,3.68,5.22,4.91,4.76s4.15-4.15,4.45-5.37,1.54-6.91,1.54-6.91-4,1.84-5.68,1.84S250.41,173.45,250.41,173.45Z" style="fill:#fff;stroke:#263238;stroke-linecap:round;stroke-linejoin:round"></path><path d="M266.48,165.43s2.5-2.46,3.36-1.08-3.28,8.31-4.62,7.43S266.48,165.43,266.48,165.43Z" style="fill:#fff;stroke:#263238;stroke-linecap:round;stroke-linejoin:round"></path><path d="M255,152.11s-3.83,1.64-4.66,3.56-2.19,12-.82,16.7,4.66,8.76,6.57,9,6.85-2.19,8.22-6.57,2.73-9,3-12,2.46-1.37-.55-5.75S257.43,150.47,255,152.11Z" style="fill:#fff;stroke:#263238;stroke-linecap:round;stroke-linejoin:round"></path><path d="M256.2,165c0,.75-.27,1.36-.64,1.37s-.7-.59-.72-1.34.27-1.36.65-1.37S256.18,164.22,256.2,165Z" style="fill:#263238"></path><path d="M261.53,165.33c0,.75-.27,1.37-.64,1.38s-.7-.59-.72-1.34.27-1.37.64-1.38S261.51,164.58,261.53,165.33Z" style="fill:#263238"></path><path d="M253.46,161.58a2.66,2.66,0,0,1,3.3-.93" style="fill:none;stroke:#263238;stroke-linecap:round;stroke-linejoin:round;stroke-width:0.5px"></path><path d="M259.7,161.18s1.74-.84,3.68,1.42" style="fill:none;stroke:#263238;stroke-linecap:round;stroke-linejoin:round;stroke-width:0.5px"></path><path d="M255.13,172.38a6.47,6.47,0,0,0,4.19.47" style="fill:none;stroke:#263238;stroke-linecap:round;stroke-linejoin:round;stroke-width:0.5px"></path><path d="M259.09,163.07s.93,6.49.23,6.84-2.2-.47-2.2-.47" style="fill:none;stroke:#263238;stroke-linecap:round;stroke-linejoin:round;stroke-width:0.5px"></path><path d="M250.87,149s-5.22,1.07-5.07,3.83,2,7.68,2,7.68,1.84,1.07,1.53,2.3-.15,3.84.93,2.92.46-4.3.92-4.76a3.94,3.94,0,0,0,1.84-3.07c0-1.84-1.08-3.53-.77-4s5.68.15,8.29,1.38,6.14,3.22,5.22,5.22a2.55,2.55,0,0,0,.31,3.07s-1.08,2.92-.31,3.69,1.69-2.61,1.69-2.61a2.52,2.52,0,0,0,2-2.15,20.09,20.09,0,0,0,.61-7.53c-.46-2.45-5.53-6.6-11.05-6.75S250.87,149,250.87,149Z" style="fill:#263238;stroke:#263238;stroke-linecap:round;stroke-linejoin:round"></path><path d="M251.48,151.65s6.3,5.52,11.67,7.67,12.28-1.84,12.59-4.91-4.91-7.52-6.29-7.68.76-2-4.3-3.53-16.28-.61-16.89,2.46S251.48,151.65,251.48,151.65Z" style="fill:#263238;stroke:#263238;stroke-linecap:round;stroke-linejoin:round"></path><path d="M248.69,182.84s-.74,35.41-5,47.52-9.69,24.23-14.35,28.52-12.86,17.89-12.86,17.89-2.8-5.41-2.8-7.08,13-13.61,14.17-14.73,1.68-6.89,1.68-15.46-2.05-48.83-2.05-49.58S245.15,181.91,248.69,182.84Z" style="fill:#059669;stroke:#263238;stroke-linecap:round;stroke-linejoin:round"></path><path d="M227.45,189.92l-.41.62a133,133,0,0,0-6.77,14.57c-3.46,8.42-12.58,22.37-10.62,25.16s7,4.47,10.06,1.12,10.62-17.61,10.62-17.61S229.31,192.9,227.45,189.92Z" style="fill:#059669;stroke:#263238;stroke-linecap:round;stroke-linejoin:round"></path><path d="M262.3,183.21s.37,24.42,1.11,41.19,3,23.11,4.85,26.28,15.47,24.23,15.47,24.23,3.17-6.53,2.79-9.14-10.25-19.19-10.25-20.12,4.29-55.91,3.54-57.4S262.3,183.21,262.3,183.21Z" style="fill:#059669;stroke:#263238;stroke-linecap:round;stroke-linejoin:round"></path><polyline points="244.78 185.08 239.37 198.5 243.66 202.78 239 208 241.61 227.94" style="fill:none;stroke:#263238;stroke-linecap:round;stroke-linejoin:round"></polyline><polyline points="264.9 185.26 269.94 197.19 264.35 200.54 269.94 209.31 264.53 223.47" style="fill:none;stroke:#263238;stroke-linecap:round;stroke-linejoin:round"></polyline><polygon points="232.01 256.27 232.95 258.71 226.31 263.83 224.22 259.09 232.01 256.27" style="fill:#fff;stroke:#263238;stroke-linecap:round;stroke-linejoin:round"></polygon><path d="M218.87,226.36,232,256.27l-9.78,7.55S208,233.9,208,231.39s3.08-7.55,4.47-8.39" style="fill:#059669;stroke:#263238;stroke-linecap:round;stroke-linejoin:round"></path><polygon points="232.95 258.71 235.23 259.85 228.96 268.39 226.31 263.83 232.95 258.71" style="fill:#fff;stroke:#263238;stroke-linecap:round;stroke-linejoin:round"></polygon><polygon points="267.74 256.7 266.56 259.04 272.66 264.8 275.21 260.29 267.74 256.7" style="fill:#fff;stroke:#263238;stroke-linecap:round;stroke-linejoin:round"></polygon><path d="M279.81,188.25s2.88,3.07,3.26,5.91,10.44,36.26,10.82,37.78-3.42,4-7.22,4.56-8.54-14.24-8.54-14.24Z" style="fill:#059669;stroke:#263238;stroke-linecap:round;stroke-linejoin:round"></path><path d="M283.8,228.25,267.74,256.7l9,8.49s17.17-28.34,17.42-30.84-2.3-7.82-3.61-8.79" style="fill:#059669;stroke:#263238;stroke-linecap:round;stroke-linejoin:round"></path><polygon points="266.56 259.04 264.18 259.94 269.56 269.07 272.66 264.8 266.56 259.04" style="fill:#fff;stroke:#263238;stroke-linecap:round;stroke-linejoin:round"></polygon></g></svg>